<mxfile host="app.diagrams.net" modified="2023-11-29T17:10:08.629Z" agent="Mozilla/5.0 (Windows NT 10.0; Win64; x64) AppleWebKit/537.36 (KHTML, like Gecko) Chrome/119.0.0.0 Safari/537.36" version="22.1.5" etag="HHnEgPADgM4oLfO3nv1q" type="github">
  <diagram name="PÃ¡gina-1" id="vl-Q4_hZtBTXTXnEfkfF">
    <mxGraphModel>
      <root>
        <mxCell id="0" />
        <mxCell id="1" parent="0" />
      </root>
    </mxGraphModel>
  </diagram>
</mxfile>
